<?xml version="1.0" encoding="utf-8"?>
<!-- Generator: Adobe Illustrator 16.0.0, SVG Export Plug-In . SVG Version: 6.00 Build 0)  -->
<!DOCTYPE svg PUBLIC "-//W3C//DTD SVG 1.1//EN" "http://www.w3.org/Graphics/SVG/1.1/DTD/svg11.dtd">
<svg version="1.1" id="Layer_1" xmlns="http://www.w3.org/2000/svg" xmlns:xlink="http://www.w3.org/1999/xlink" x="0px" y="0px"
	 width="200px" height="35px" viewBox="0 0 200 35" enable-background="new 0 0 200 35" xml:space="preserve">
<g>
	<path fill="#FFFFFF" d="M32.174,16.904c0,3.172-0.763,5.725-2.287,7.665c-1.523,1.938-3.541,2.908-6.053,2.908
		c-2.268,0-3.986-0.854-5.157-2.561h-0.074v9.582h-3.219V7.796h3.073v2.707h0.073c0.706-1,1.398-1.73,2.08-2.194
		c1.045-0.706,2.274-1.062,3.685-1.062c2.383,0,4.293,0.884,5.727,2.65C31.455,11.669,32.174,14.003,32.174,16.904z M28.845,16.98
		c0-4.561-1.708-6.842-5.121-6.842c-3.512,0-5.268,2.609-5.268,7.828c0,2.099,0.463,3.743,1.391,4.938
		c0.926,1.193,2.207,1.793,3.84,1.793c1.658,0,2.932-0.672,3.823-2.012C28.399,21.344,28.845,19.443,28.845,16.98z"/>
	<path fill="#FFFFFF" d="M45.745,10.687h-1.207c-1.415,0-2.586,0.482-3.512,1.445c-0.927,0.964-1.39,2.189-1.39,3.676v11.12h-3.219
		V7.797h3.036v3.183h0.073c0.536-0.879,1-1.523,1.39-1.938c1.098-1.194,2.439-1.793,4.024-1.793c0.292,0,0.561,0.037,0.804,0.108
		L45.745,10.687L45.745,10.687z"/>
	<path fill="#FFFFFF" d="M64.838,17.345c0,2.976-0.823,5.401-2.469,7.278c-1.646,1.879-3.773,2.816-6.383,2.816
		c-2.633,0-4.779-0.935-6.438-2.799c-1.659-1.865-2.487-4.273-2.487-7.226c0-3.022,0.817-5.475,2.45-7.352
		c1.634-1.879,3.78-2.816,6.438-2.816c2.634,0,4.773,0.938,6.419,2.816C64.016,11.943,64.838,14.369,64.838,17.345z M61.509,17.345
		c0-2.244-0.5-4.022-1.499-5.341c-1.001-1.317-2.354-1.976-4.061-1.976c-1.708,0-3.061,0.658-4.06,1.976
		c-1.001,1.315-1.5,3.097-1.5,5.341c0,2.243,0.499,4.022,1.5,5.341c0.999,1.315,2.353,1.975,4.06,1.975
		c1.707,0,3.06-0.658,4.061-1.975C61.01,21.367,61.509,19.588,61.509,17.345z"/>
	<path fill="#FFFFFF" d="M71.825,30.184c0,1.316-0.409,2.365-1.226,3.146s-1.92,1.17-3.311,1.17c-2.949,0-4.425-1.584-4.425-4.754
		V29.49h2.89c0,0.096,0,0.242,0,0.438c0,1.193,0.475,1.793,1.427,1.793c0.951,0,1.427-0.693,1.427-2.086V7.797h3.219L71.825,30.184
		L71.825,30.184z"/>
	<path fill="#FFFFFF" d="M93.113,18.406H79.14c0.049,1.193,0.183,2.133,0.402,2.813c0.707,2.318,2.377,3.478,5.012,3.478
		c1.292,0,2.419-0.355,3.383-1.062c0.963-0.707,1.53-1.607,1.7-2.707h3.22c-0.416,2.072-1.353,3.684-2.816,4.828
		c-1.463,1.146-3.28,1.721-5.45,1.721c-2.78,0-4.956-0.865-6.529-2.598c-1.573-1.73-2.359-4.121-2.359-7.17
		c0-3.193,0.816-5.737,2.451-7.627c1.634-1.891,3.84-2.834,6.621-2.834c3.073,0,5.315,1.257,6.731,3.767
		c0.511,0.927,0.865,1.793,1.061,2.599C92.809,14.711,92.991,16.308,93.113,18.406z M89.785,15.845
		c-0.122-1.146-0.293-2.013-0.512-2.599c-0.756-2.071-2.305-3.108-4.646-3.108c-1.561,0-2.834,0.52-3.823,1.555
		c-0.987,1.037-1.542,2.42-1.664,4.151L89.785,15.845L89.785,15.845z"/>
	<path fill="#FFFFFF" d="M112.902,26.928h-4.133l-5.961-9.655l-2.669,2.411v7.244h-3.111V0.664h3.111v15.219l8.229-8.085h4.097
		l-7.316,7.132L112.902,26.928z"/>
	<path fill="#FFFFFF" d="M122.561,10.467h-3.074v16.46h-3.219v-16.46h-2.597v-2.67h2.597V0.664h3.219v7.134h3.074V10.467z"/>
	<path fill="#FFFFFF" d="M141.143,26.928h-3.037v-2.522c-1.391,2.049-3.315,3.073-5.778,3.073c-2.366,0-4.286-0.951-5.761-2.854
		c-1.478-1.899-2.215-4.363-2.215-7.387c0-3,0.728-5.414,2.176-7.244c1.453-1.828,3.386-2.742,5.8-2.742
		c1.512,0,2.767,0.342,3.769,1.023c0.512,0.344,1.184,1.037,2.012,2.084v-2.56h3.037v19.13H141.143z M138.105,17.236
		c0-2.244-0.472-4.006-1.408-5.287c-0.939-1.279-2.25-1.92-3.934-1.92c-1.609,0-2.859,0.636-3.748,1.902
		c-0.893,1.268-1.336,3.071-1.336,5.413c0,2.365,0.444,4.184,1.336,5.451c0.889,1.268,2.15,1.902,3.784,1.902
		c1.683,0,2.986-0.652,3.913-1.957C137.643,21.436,138.105,19.6,138.105,17.236z"/>
	<path fill="#FFFFFF" d="M155.518,10.687h-1.207c-1.416,0-2.586,0.482-3.513,1.445c-0.927,0.964-1.39,2.189-1.39,3.676v11.12h-3.221
		V7.797h3.037v3.183h0.072c0.536-0.879,0.999-1.523,1.391-1.938c1.098-1.194,2.438-1.793,4.023-1.793
		c0.292,0,0.562,0.037,0.807,0.108V10.687L155.518,10.687z"/>
	<path fill="#FFFFFF" d="M173.514,26.928h-3.22V15.15c0-1.756-0.312-3.029-0.933-3.822c-0.623-0.791-1.641-1.188-3.055-1.188
		c-1.586,0-2.843,0.572-3.77,1.72c-0.928,1.146-1.391,2.694-1.391,4.646V26.93h-3.219V7.799h3.035v2.707h0.073
		c1.585-2.17,3.585-3.256,6-3.256c2.022,0,3.608,0.585,4.755,1.756s1.719,2.804,1.719,4.901v13.02L173.514,26.928L173.514,26.928z"
		/>
	<path fill="#FFFFFF" d="M193.999,26.928h-3.037v-2.522c-1.39,2.049-3.315,3.073-5.778,3.073c-2.367,0-4.287-0.951-5.762-2.854
		c-1.477-1.899-2.213-4.363-2.213-7.387c0-3,0.727-5.414,2.176-7.244c1.452-1.828,3.385-2.742,5.799-2.742
		c1.512,0,2.769,0.342,3.769,1.023c0.512,0.344,1.182,1.037,2.012,2.084v-2.56H194L193.999,26.928L193.999,26.928z M190.962,17.236
		c0-2.244-0.47-4.006-1.409-5.287c-0.938-1.279-2.25-1.92-3.931-1.92c-1.608,0-2.858,0.636-3.75,1.902
		c-0.89,1.268-1.334,3.071-1.334,5.413c0,2.365,0.444,4.184,1.334,5.451c0.892,1.268,2.151,1.902,3.786,1.902
		c1.683,0,2.986-0.652,3.915-1.957C190.499,21.436,190.962,19.6,190.962,17.236z"/>
	<path fill="#FFFFFF" d="M6.001,24.988c0-1.354,0.915-2.305,2.195-2.305c1.28,0,2.157,0.95,2.157,2.305
		c0,1.316-0.841,2.305-2.194,2.305C6.88,27.293,6.001,26.307,6.001,24.988z"/>
	<path fill="#FFFFFF" d="M72.208,2.511c0.037,1.062-0.731,1.977-2.011,1.977c-1.208,0-1.975-0.916-1.975-1.977
		c0-1.134,0.841-2.012,2.048-2.012C71.441,0.5,72.208,1.377,72.208,2.511z"/>
</g>
</svg>
