<?xml version="1.0" encoding="utf-8"?>
<!-- Generator: Adobe Illustrator 16.0.0, SVG Export Plug-In . SVG Version: 6.00 Build 0)  -->
<!DOCTYPE svg PUBLIC "-//W3C//DTD SVG 1.1//EN" "http://www.w3.org/Graphics/SVG/1.1/DTD/svg11.dtd">
<svg version="1.1" id="Layer_1" xmlns="http://www.w3.org/2000/svg" xmlns:xlink="http://www.w3.org/1999/xlink" x="0px" y="0px"
	 width="1100px" height="1100px" viewBox="0 0 1100 1100" enable-background="new 0 0 1100 1100" xml:space="preserve">
<g>
	<g>
		<g>
			<linearGradient id="SVGID_1_" gradientUnits="userSpaceOnUse" x1="549.9702" y1="1094.9961" x2="549.9702" y2="-2.2238">
				<stop  offset="0" style="stop-color:#000000"/>
				<stop  offset="1" style="stop-color:#CCCCCC"/>
			</linearGradient>
			<path fill="url(#SVGID_1_)" d="M1073.292,611.97l-458.875,458.883c-17.215,17.207-40.098,26.686-64.432,26.686
				c-24.342,0-47.225-9.479-64.439-26.686L87.784,673.09l-61.114-61.12C9.47,594.771,0,571.886,0,547.538
				c0-24.349,9.47-47.232,26.669-64.432L485.546,24.222C502.76,7.015,525.643-2.462,549.985-2.462
				c24.334,0,47.217,9.477,64.432,26.684l254.824,254.832l204.051,204.052C1108.822,518.637,1108.822,576.438,1073.292,611.97z"/>
			<linearGradient id="SVGID_2_" gradientUnits="userSpaceOnUse" x1="549.9702" y1="1090.0303" x2="549.9702" y2="2.7648">
				<stop  offset="0" style="stop-color:#1A1A1A"/>
				<stop  offset="1" style="stop-color:#4D4D4D"/>
			</linearGradient>
			<path fill="url(#SVGID_2_)" d="M549.981,1092.549c-23.004,0-44.633-8.959-60.902-25.227L30.199,608.441
				C13.943,592.188,4.99,570.557,4.99,547.538c0-23.02,8.953-44.648,25.209-60.904L489.078,27.755
				c16.267-16.269,37.897-25.227,60.903-25.227c23.007,0,44.637,8.958,60.904,25.227l458.879,458.878
				c33.58,33.583,33.58,88.225,0.001,121.808l-458.88,458.879C594.614,1083.59,572.986,1092.549,549.981,1092.549z"/>
			<linearGradient id="SVGID_3_" gradientUnits="userSpaceOnUse" x1="549.9819" y1="1044.3535" x2="549.9819" y2="48.6305">
				<stop  offset="0" style="stop-color:#BD9202"/>
				<stop  offset="1" style="stop-color:#FEF3CC"/>
			</linearGradient>
			<path fill="url(#SVGID_3_)" d="M549.981,1046.66c-10.749,0-20.856-4.186-28.457-11.785L62.645,575.996
				c-15.691-15.692-15.691-41.225,0-56.916L521.524,60.202c7.601-7.602,17.708-11.788,28.457-11.788
				c10.75,0,20.856,4.186,28.458,11.788l458.878,458.878c15.692,15.691,15.692,41.224,0,56.916l-458.878,458.879
				C570.837,1042.475,560.731,1046.66,549.981,1046.66z"/>
			<linearGradient id="SVGID_4_" gradientUnits="userSpaceOnUse" x1="549.9814" y1="1041.5039" x2="549.9814" y2="51.492">
				<stop  offset="0" style="stop-color:#FCC302"/>
				<stop  offset="1" style="stop-color:#FDCF35"/>
			</linearGradient>
			<path fill="url(#SVGID_4_)" d="M525.416,1033.622L63.897,572.104c-13.568-13.567-13.568-35.563,0-49.131l461.519-461.52
				c13.567-13.567,35.564-13.567,49.13,0l461.521,461.52c13.565,13.567,13.565,35.563,0,49.131l-461.521,461.519
				C560.98,1047.189,538.983,1047.189,525.416,1033.622z"/>
		</g>
		<g>
			<g>
				<linearGradient id="SVGID_5_" gradientUnits="userSpaceOnUse" x1="302.2017" y1="1093.5068" x2="302.2016" y2="1.5059">
					<stop  offset="0" style="stop-color:#1A1A1A"/>
					<stop  offset="1" style="stop-color:#4D4D4D"/>
				</linearGradient>
				<path fill="url(#SVGID_5_)" d="M330.229,385.095h27.828v63.41c0,16.312-4.826,28.681-14.473,37.104
					c-9.65,8.424-23.43,12.635-41.342,12.635c-17.699,0-31.439-4.266-41.222-12.795c-9.782-8.528-14.673-20.791-14.673-36.784
					v-63.569h27.908v64.21c0,7.784,2.544,14.021,7.636,18.712c5.091,4.691,11.767,7.036,20.031,7.036
					c8.583,0,15.445-2.398,20.591-7.196c5.144-4.798,7.716-11.621,7.716-20.471V385.095z"/>
				<linearGradient id="SVGID_6_" gradientUnits="userSpaceOnUse" x1="438.8604" y1="1093.5" x2="438.8603" y2="1.5098">
					<stop  offset="0" style="stop-color:#1A1A1A"/>
					<stop  offset="1" style="stop-color:#4D4D4D"/>
				</linearGradient>
				<path fill="url(#SVGID_6_)" d="M495.354,385.095v111.708h-23.502l-61.659-71.567v71.567h-27.827V385.095h25.516l59.645,68.287
					v-68.287H495.354z"/>
				<linearGradient id="SVGID_7_" gradientUnits="userSpaceOnUse" x1="575.7983" y1="1093.5" x2="575.7983" y2="1.5098">
					<stop  offset="0" style="stop-color:#1A1A1A"/>
					<stop  offset="1" style="stop-color:#4D4D4D"/>
				</linearGradient>
				<path fill="url(#SVGID_7_)" d="M520.303,385.095h49.257c19.032,0,34.078,5.211,45.14,15.631
					c11.062,10.423,16.592,23.898,16.592,40.422c0,17.326-5.61,30.934-16.833,40.821c-11.222,9.89-27.228,14.833-48.018,14.833
					h-46.14V385.095z M548.131,405.565v70.767h18.152c11.78,0,20.79-3.238,27.027-9.716c6.238-6.476,9.355-15.019,9.355-25.628
					c0-10.981-3.158-19.631-9.475-25.947c-6.318-6.318-15.394-9.476-27.229-9.476H548.131z"/>
				<linearGradient id="SVGID_8_" gradientUnits="userSpaceOnUse" x1="693.2656" y1="1093.5" x2="693.2656" y2="1.5098">
					<stop  offset="0" style="stop-color:#1A1A1A"/>
					<stop  offset="1" style="stop-color:#4D4D4D"/>
				</linearGradient>
				<path fill="url(#SVGID_8_)" d="M734.446,476.332v20.471h-82.362V385.095h81.243v20.471h-53.416v23.429h50.937v20.471h-50.937
					v26.867H734.446z"/>
				<linearGradient id="SVGID_9_" gradientUnits="userSpaceOnUse" x1="804.6553" y1="1093.5" x2="804.6552" y2="1.5098">
					<stop  offset="0" style="stop-color:#1A1A1A"/>
					<stop  offset="1" style="stop-color:#4D4D4D"/>
				</linearGradient>
				<path fill="url(#SVGID_9_)" d="M755.718,385.095h49.896c10.821,0,19.617,3.128,26.388,9.389
					c6.77,6.26,10.156,13.839,10.156,22.734c0,12.307-6.396,21.417-19.191,27.329c5.607,2.552,10.938,9.422,15.99,20.609
					c5.053,11.189,9.93,21.737,14.636,31.646h-30.536c-1.822-3.678-4.999-10.688-9.528-21.031
					c-4.529-10.341-8.406-16.978-11.631-19.91c-3.228-2.931-6.678-4.398-10.356-4.398h-7.997v45.34h-27.826V385.095z
					 M783.544,405.565v25.427h14.715c4.69,0,8.408-1.105,11.153-3.317c2.747-2.212,4.119-5.371,4.119-9.477
					c0-8.423-5.306-12.633-15.913-12.633H783.544z"/>
			</g>
			<g>
				<linearGradient id="SVGID_10_" gradientUnits="userSpaceOnUse" x1="263.4971" y1="1093.5117" x2="263.497" y2="1.5061">
					<stop  offset="0" style="stop-color:#1A1A1A"/>
					<stop  offset="1" style="stop-color:#4D4D4D"/>
				</linearGradient>
				<path fill="url(#SVGID_10_)" d="M287.167,570.146v10.602c-6.071,3.22-12.432,4.831-19.082,4.831
					c-8.62,0-15.484-2.381-20.593-7.143s-7.664-10.63-7.664-17.604c0-6.976,2.694-12.896,8.081-17.761
					c5.388-4.866,12.425-7.3,21.115-7.3c6.928,0,12.791,1.426,17.587,4.275v10.81c-5.886-3.314-11.458-4.971-16.718-4.971
					c-5.167,0-9.39,1.385-12.669,4.153c-3.279,2.77-4.918,6.297-4.918,10.583c0,4.311,1.616,7.867,4.849,10.672
					c3.232,2.803,7.374,4.205,12.426,4.205c2.502,0,4.912-0.331,7.229-0.99C279.125,573.848,282.579,572.394,287.167,570.146z"/>
				<linearGradient id="SVGID_11_" gradientUnits="userSpaceOnUse" x1="322.5142" y1="1093.5117" x2="322.5141" y2="1.5061">
					<stop  offset="0" style="stop-color:#1A1A1A"/>
					<stop  offset="1" style="stop-color:#4D4D4D"/>
				</linearGradient>
				<path fill="url(#SVGID_11_)" d="M322.548,535.771c8.272,0,14.968,2.497,20.089,7.49c5.121,4.994,7.681,10.805,7.681,17.432
					c0,6.721-2.595,12.546-7.785,17.481c-5.191,4.936-11.852,7.403-19.985,7.403c-8.226,0-14.923-2.456-20.089-7.369
					c-5.167-4.911-7.75-10.751-7.75-17.516c0-6.651,2.565-12.467,7.698-17.449C307.54,538.263,314.253,535.771,322.548,535.771z
					 M322.548,575.499c4.588,0,8.284-1.361,11.088-4.085c2.803-2.722,4.205-6.296,4.205-10.721c0-4.45-1.401-8.029-4.205-10.742
					c-2.804-2.709-6.5-4.065-11.088-4.065c-4.611,0-8.324,1.356-11.139,4.065c-2.815,2.713-4.223,6.292-4.223,10.742
					c0,4.425,1.408,7.999,4.223,10.721C314.225,574.138,317.937,575.499,322.548,575.499z"/>
				<linearGradient id="SVGID_12_" gradientUnits="userSpaceOnUse" x1="383.7026" y1="1093.5205" x2="383.7026" y2="1.4939">
					<stop  offset="0" style="stop-color:#1A1A1A"/>
					<stop  offset="1" style="stop-color:#4D4D4D"/>
				</linearGradient>
				<path fill="url(#SVGID_12_)" d="M408.258,536.397v48.556h-10.214l-26.802-31.108v31.108h-12.095v-48.556h11.091l25.925,29.683
					v-29.683H408.258z"/>
				<linearGradient id="SVGID_13_" gradientUnits="userSpaceOnUse" x1="435.7339" y1="1093.5117" x2="435.7338" y2="1.5061">
					<stop  offset="0" style="stop-color:#1A1A1A"/>
					<stop  offset="1" style="stop-color:#4D4D4D"/>
				</linearGradient>
				<path fill="url(#SVGID_13_)" d="M452.122,539.525v9.488c-6.442-2.896-11.574-4.345-15.397-4.345
					c-2.178,0-3.91,0.365-5.195,1.095c-1.287,0.73-1.929,1.698-1.929,2.901c0,0.929,0.463,1.809,1.391,2.643
					c0.926,0.834,3.186,1.912,6.777,3.232c3.591,1.321,6.463,2.549,8.62,3.685c2.154,1.135,4.014,2.734,5.577,4.797
					c1.564,2.062,2.346,4.668,2.346,7.819c0,4.495-1.709,8.075-5.126,10.741c-3.418,2.663-7.919,3.996-13.502,3.996
					c-6.025,0-11.864-1.564-17.518-4.692v-10.462c3.244,2.178,6.118,3.766,8.62,4.762c2.502,0.996,5.154,1.495,7.958,1.495
					c4.75,0,7.125-1.495,7.125-4.481c0-1.019-0.475-1.98-1.425-2.884s-3.239-2.002-6.865-3.299c-3.627-1.297-6.5-2.502-8.62-3.614
					c-2.12-1.112-3.95-2.7-5.49-4.764c-1.541-2.062-2.311-4.705-2.311-7.926c0-4.172,1.68-7.538,5.041-10.1
					c3.359-2.562,7.854-3.842,13.485-3.842C440.872,535.771,446.352,537.022,452.122,539.525z"/>
				<linearGradient id="SVGID_14_" gradientUnits="userSpaceOnUse" x1="482.3599" y1="1093.5205" x2="482.3598" y2="1.4939">
					<stop  offset="0" style="stop-color:#1A1A1A"/>
					<stop  offset="1" style="stop-color:#4D4D4D"/>
				</linearGradient>
				<path fill="url(#SVGID_14_)" d="M505.994,536.397v8.897h-17.586v39.658h-12.095v-39.658h-17.587v-8.897H505.994z"/>
				<linearGradient id="SVGID_15_" gradientUnits="userSpaceOnUse" x1="534.6333" y1="1093.5205" x2="534.6332" y2="1.4939">
					<stop  offset="0" style="stop-color:#1A1A1A"/>
					<stop  offset="1" style="stop-color:#4D4D4D"/>
				</linearGradient>
				<path fill="url(#SVGID_15_)" d="M513.362,536.397h21.688c4.704,0,8.527,1.36,11.47,4.081c2.942,2.721,4.414,6.015,4.414,9.883
					c0,5.348-2.78,9.308-8.342,11.877c2.438,1.109,4.755,4.096,6.951,8.959c2.197,4.862,4.317,9.448,6.362,13.756h-13.273
					c-0.792-1.599-2.172-4.646-4.141-9.143c-1.97-4.494-3.655-7.379-5.056-8.654c-1.403-1.273-2.903-1.912-4.501-1.912h-3.476
					v19.709h-12.095V536.397z M525.458,545.295v11.052h6.395c2.039,0,3.655-0.48,4.849-1.442c1.193-0.96,1.79-2.333,1.79-4.118
					c0-3.661-2.307-5.491-6.917-5.491H525.458z"/>
				<linearGradient id="SVGID_16_" gradientUnits="userSpaceOnUse" x1="583.2397" y1="1093.5107" x2="583.2397" y2="1.4984">
					<stop  offset="0" style="stop-color:#1A1A1A"/>
					<stop  offset="1" style="stop-color:#4D4D4D"/>
				</linearGradient>
				<path fill="url(#SVGID_16_)" d="M595.423,536.397h12.094v27.562c0,7.091-2.097,12.467-6.291,16.127
					c-4.194,3.662-10.184,5.492-17.97,5.492c-7.692,0-13.664-1.854-17.917-5.562c-4.252-3.706-6.378-9.036-6.378-15.988v-27.631
					h12.131v27.91c0,3.382,1.106,6.094,3.319,8.133c2.212,2.039,5.115,3.059,8.707,3.059c3.73,0,6.713-1.044,8.949-3.129
					c2.236-2.086,3.355-5.051,3.355-8.897V536.397z"/>
				<linearGradient id="SVGID_17_" gradientUnits="userSpaceOnUse" x1="639.5981" y1="1093.5117" x2="639.5981" y2="1.5061">
					<stop  offset="0" style="stop-color:#1A1A1A"/>
					<stop  offset="1" style="stop-color:#4D4D4D"/>
				</linearGradient>
				<path fill="url(#SVGID_17_)" d="M663.268,570.146v10.602c-6.071,3.22-12.431,4.831-19.083,4.831
					c-8.619,0-15.482-2.381-20.593-7.143c-5.109-4.762-7.664-10.63-7.664-17.604c0-6.976,2.694-12.896,8.081-17.761
					c5.388-4.866,12.426-7.3,21.115-7.3c6.928,0,12.791,1.426,17.587,4.275v10.81c-5.886-3.314-11.457-4.971-16.718-4.971
					c-5.167,0-9.39,1.385-12.668,4.153c-3.279,2.77-4.918,6.297-4.918,10.583c0,4.311,1.617,7.867,4.849,10.672
					c3.232,2.803,7.374,4.205,12.426,4.205c2.501,0,4.912-0.331,7.229-0.99C655.227,573.848,658.68,572.394,663.268,570.146z"/>
				<linearGradient id="SVGID_18_" gradientUnits="userSpaceOnUse" x1="693.0884" y1="1093.5205" x2="693.0883" y2="1.4939">
					<stop  offset="0" style="stop-color:#1A1A1A"/>
					<stop  offset="1" style="stop-color:#4D4D4D"/>
				</linearGradient>
				<path fill="url(#SVGID_18_)" d="M716.723,536.397v8.897h-17.585v39.658h-12.095v-39.658h-17.588v-8.897H716.723z"/>
				<linearGradient id="SVGID_19_" gradientUnits="userSpaceOnUse" x1="730.5566" y1="1093.5205" x2="730.5566" y2="1.4939">
					<stop  offset="0" style="stop-color:#1A1A1A"/>
					<stop  offset="1" style="stop-color:#4D4D4D"/>
				</linearGradient>
				<path fill="url(#SVGID_19_)" d="M736.604,536.397v48.556h-12.096v-48.556H736.604z"/>
				<linearGradient id="SVGID_20_" gradientUnits="userSpaceOnUse" x1="773.5146" y1="1093.5117" x2="773.5146" y2="1.5061">
					<stop  offset="0" style="stop-color:#1A1A1A"/>
					<stop  offset="1" style="stop-color:#4D4D4D"/>
				</linearGradient>
				<path fill="url(#SVGID_20_)" d="M773.549,535.771c8.273,0,14.97,2.497,20.091,7.49c5.12,4.994,7.68,10.805,7.68,17.432
					c0,6.721-2.595,12.546-7.785,17.481s-11.851,7.403-19.985,7.403c-8.225,0-14.922-2.456-20.088-7.369
					c-5.167-4.911-7.751-10.751-7.751-17.516c0-6.651,2.566-12.467,7.698-17.449C758.539,538.263,765.255,535.771,773.549,535.771z
					 M773.549,575.499c4.589,0,8.285-1.361,11.089-4.085c2.803-2.722,4.205-6.296,4.205-10.721c0-4.45-1.402-8.029-4.205-10.742
					c-2.804-2.709-6.5-4.065-11.089-4.065c-4.609,0-8.323,1.356-11.14,4.065c-2.813,2.713-4.222,6.292-4.222,10.742
					c0,4.425,1.408,7.999,4.222,10.721C765.226,574.138,768.939,575.499,773.549,575.499z"/>
				<linearGradient id="SVGID_21_" gradientUnits="userSpaceOnUse" x1="834.7051" y1="1093.5205" x2="834.705" y2="1.4939">
					<stop  offset="0" style="stop-color:#1A1A1A"/>
					<stop  offset="1" style="stop-color:#4D4D4D"/>
				</linearGradient>
				<path fill="url(#SVGID_21_)" d="M859.261,536.397v48.556h-10.216l-26.801-31.108v31.108h-12.096v-48.556h11.091l25.925,29.683
					v-29.683H859.261z"/>
			</g>
		</g>
	</g>
	<g>
		<linearGradient id="SVGID_22_" gradientUnits="userSpaceOnUse" x1="400.6743" y1="753.2881" x2="563.2607" y2="753.2881">
			<stop  offset="0" style="stop-color:#1A1A1A"/>
			<stop  offset="1" style="stop-color:#4D4D4D"/>
		</linearGradient>
		<path fill="url(#SVGID_22_)" d="M561.08,668.997l-28.126-37.215c-1.931-2.555-4.949-4.057-8.152-4.057h-79.854
			c-13.84,0-12.074,10.078-12.074,10.078l0.581,60.178c0.034,3.494-1.137,6.896-3.314,9.631l-7.975,10.009
			c-3.204,4.022-4.818,9.083-4.536,14.218l2.595,47.138c0.114,2.061-0.092,4.126-0.61,6.123l-18.235,70.317
			c-0.286,1.103-0.522,2.221-0.625,3.355c-1.368,15.019,15.16,16.737,15.16,16.737c6.958,1.517,11.517-0.646,14.336-3.187
			c2.179-1.962,3.659-4.583,4.433-7.41l21.061-76.905l1.44-34.725l28.365,33.759c1.717,2.044,2.059,4.911,0.87,7.3l-28.787,57.872
			c-0.753,1.516-1.393,3.091-1.831,4.725c-3.579,13.318,6.499,18.571,6.499,18.571c5.999,3.759,11.277,3.759,15.057,2.818
			c3.441-0.855,6.288-3.27,7.892-6.433l38.224-75.341c2.539-5.005,2.269-10.976-0.712-15.731l-4.201-6.702
			c-1.748-2.786-1.854-6.3-0.278-9.188l41.358-75.782C566.839,677.154,561.08,668.997,561.08,668.997z M456.849,675.58l1.176-18.823
			c0.067-1.078,0.961-1.917,2.041-1.917h18.273c0.772,0,1.153,0.938,0.599,1.475l-20.583,19.96
			C457.771,676.84,456.797,676.391,456.849,675.58z M502.271,731.96l-12.773-10.391c-0.972-0.79-0.86-2.307,0.218-2.945
			l25.258-14.974c0.941-0.558,2.113,0.27,1.875,1.338c-1.593,7.175-8.627,20.965-11.453,26.336
			C504.789,732.477,503.28,732.781,502.271,731.96z"/>
		<linearGradient id="SVGID_23_" gradientUnits="userSpaceOnUse" x1="550.2832" y1="634.4434" x2="604.9902" y2="634.4434">
			<stop  offset="0" style="stop-color:#1A1A1A"/>
			<stop  offset="1" style="stop-color:#4D4D4D"/>
		</linearGradient>
		<circle fill="url(#SVGID_23_)" cx="577.637" cy="634.445" r="27.354"/>
		<g>
			<linearGradient id="SVGID_24_" gradientUnits="userSpaceOnUse" x1="406.0537" y1="750.1973" x2="612.6519" y2="750.1973">
				<stop  offset="0" style="stop-color:#1A1A1A"/>
				<stop  offset="1" style="stop-color:#4D4D4D"/>
			</linearGradient>
			<path fill="url(#SVGID_24_)" d="M603.087,834.325L408.921,679.736c-3.285-2.613-3.827-7.396-1.212-10.68l0.095-0.121
				c2.615-3.283,7.397-3.827,10.682-1.213l194.166,154.589L603.087,834.325z"/>
		</g>
		<linearGradient id="SVGID_25_" gradientUnits="userSpaceOnUse" x1="522.9814" y1="836.6367" x2="721.2568" y2="836.6367">
			<stop  offset="0" style="stop-color:#1A1A1A"/>
			<stop  offset="1" style="stop-color:#4D4D4D"/>
		</linearGradient>
		<path fill="url(#SVGID_25_)" d="M525.541,875.508h192.162c2.509,0,4.233-2.53,3.296-4.857
			c-2.854-7.088-11.327-20.225-35.934-27.604c-0.978-0.292-1.671-1.155-1.715-2.176c-0.293-6.612-3.354-30.062-32.333-22.245
			c-0.508,0.139-1.038-0.131-1.215-0.626c-1.429-3.997-8.109-20.232-22.417-20.232c0,0-18.38-0.308-23.366,16.464
			c-0.189,0.64-0.82,1.038-1.483,0.973c-3.793-0.376-15.915-0.484-23.704,11.984c-0.247,0.394-0.654,0.663-1.117,0.708
			c-3.684,0.36-20.288,2.831-21.993,18.18c0,0-18.704,2.877-32.37,25.551C522.326,873.329,523.553,875.508,525.541,875.508z"/>
	</g>
</g>
</svg>
