<?xml version="1.0" encoding="utf-8"?>
<!-- Generator: Adobe Illustrator 16.0.0, SVG Export Plug-In . SVG Version: 6.00 Build 0)  -->
<!DOCTYPE svg PUBLIC "-//W3C//DTD SVG 1.1//EN" "http://www.w3.org/Graphics/SVG/1.1/DTD/svg11.dtd">
<svg version="1.1" id="Layer_1" xmlns="http://www.w3.org/2000/svg" xmlns:xlink="http://www.w3.org/1999/xlink" x="0px" y="0px"
	 width="1100px" height="1100px" viewBox="0 0 1100 1100" enable-background="new 0 0 1100 1100" xml:space="preserve">
<g>
	<g>
		<linearGradient id="SVGID_1_" gradientUnits="userSpaceOnUse" x1="549.9692" y1="5.0459" x2="549.9692" y2="1092.3124">
			<stop  offset="0" style="stop-color:#0007E5"/>
			<stop  offset="1" style="stop-color:#3B47E0"/>
		</linearGradient>
		<path fill="url(#SVGID_1_)" d="M1069.764,486.633L610.885,27.755c-16.267-16.269-37.896-25.227-60.903-25.227
			s-44.637,8.958-60.903,25.227L30.199,486.634C13.943,502.89,4.99,524.518,4.99,547.538c0,23.019,8.953,44.649,25.209,60.903
			l458.88,458.881c16.269,16.268,37.897,25.227,60.902,25.227s44.633-8.959,60.903-25.229l458.88-458.879
			C1103.344,574.858,1103.344,520.216,1069.764,486.633z M1037.316,575.996l-458.878,458.879
			c-7.602,7.6-17.707,11.785-28.457,11.785c-10.749,0-20.856-4.187-28.457-11.785L62.645,575.996
			c-15.691-15.692-15.691-41.225,0-56.916L521.524,60.202c7.601-7.602,17.708-11.788,28.456-11.788
			c10.75,0,20.856,4.186,28.459,11.788l458.877,458.878C1053.009,534.771,1053.009,560.304,1037.316,575.996z"/>
	</g>
</g>
<path fill="#0007E5" d="M1073.292,483.106L869.241,279.054L614.417,24.222C597.202,7.015,574.319-2.462,549.985-2.462
	c-24.343,0-47.226,9.477-64.439,26.684L26.669,483.106C9.47,500.306,0,523.189,0,547.538c0,24.348,9.47,47.233,26.67,64.432
	l61.114,61.12l397.762,397.764c17.214,17.207,40.097,26.686,64.439,26.686c24.334,0,47.217-9.479,64.432-26.686l458.875-458.884
	C1108.822,576.438,1108.822,518.637,1073.292,483.106z M1036.067,572.104l-461.521,461.52c-13.565,13.566-35.562,13.566-49.13-0.001
	L63.897,572.104c-13.568-13.566-13.568-35.562,0-49.131l461.519-461.52c13.567-13.567,35.564-13.567,49.13,0l461.521,461.52
	C1049.632,536.54,1049.632,558.536,1036.067,572.104z"/>
<g>
	<g>
		<linearGradient id="SVGID_2_" gradientUnits="userSpaceOnUse" x1="246.3472" y1="441.6699" x2="358.0566" y2="441.6699">
			<stop  offset="0" style="stop-color:#0007E5"/>
			<stop  offset="1" style="stop-color:#3B47E0"/>
		</linearGradient>
		<path fill="url(#SVGID_2_)" d="M330.229,385.095h27.828v63.41c0,16.312-4.825,28.681-14.473,37.104
			c-9.65,8.424-23.43,12.635-41.342,12.635c-17.699,0-31.439-4.266-41.222-12.795c-9.782-8.528-14.673-20.791-14.673-36.784v-63.569
			h27.908v64.209c0,7.784,2.544,14.021,7.636,18.712c5.091,4.691,11.767,7.036,20.031,7.036c8.583,0,15.445-2.397,20.591-7.195
			c5.145-4.799,7.716-11.621,7.716-20.472V385.095z"/>
		<linearGradient id="SVGID_3_" gradientUnits="userSpaceOnUse" x1="382.3662" y1="440.9492" x2="495.3535" y2="440.9492">
			<stop  offset="0" style="stop-color:#0007E5"/>
			<stop  offset="1" style="stop-color:#3B47E0"/>
		</linearGradient>
		<path fill="url(#SVGID_3_)" d="M495.354,385.095v111.708h-23.502l-61.658-71.566v71.566h-27.827V385.095h25.516l59.646,68.287
			v-68.287H495.354L495.354,385.095z"/>
		<linearGradient id="SVGID_4_" gradientUnits="userSpaceOnUse" x1="520.3008" y1="440.9482" x2="631.292" y2="440.9482">
			<stop  offset="0" style="stop-color:#0007E5"/>
			<stop  offset="1" style="stop-color:#3B47E0"/>
		</linearGradient>
		<path fill="url(#SVGID_4_)" d="M520.303,385.095h49.257c19.032,0,34.078,5.211,45.141,15.63
			c11.062,10.424,16.592,23.898,16.592,40.423c0,17.325-5.61,30.934-16.833,40.82c-11.222,9.891-27.229,14.833-48.018,14.833
			h-46.141V385.095H520.303z M548.131,405.565v70.767h18.152c11.779,0,20.79-3.238,27.026-9.716
			c6.238-6.477,9.355-15.02,9.355-25.628c0-10.981-3.158-19.631-9.476-25.947c-6.317-6.318-15.394-9.476-27.229-9.476H548.131z"/>
		<linearGradient id="SVGID_5_" gradientUnits="userSpaceOnUse" x1="652.084" y1="440.9492" x2="734.4463" y2="440.9492">
			<stop  offset="0" style="stop-color:#0007E5"/>
			<stop  offset="1" style="stop-color:#3B47E0"/>
		</linearGradient>
		<path fill="url(#SVGID_5_)" d="M734.446,476.332v20.471h-82.362V385.095h81.243v20.471h-53.416v23.429h50.937v20.471h-50.937
			v26.867L734.446,476.332L734.446,476.332z"/>
		<linearGradient id="SVGID_6_" gradientUnits="userSpaceOnUse" x1="755.7178" y1="440.9492" x2="853.5928" y2="440.9492">
			<stop  offset="0" style="stop-color:#0007E5"/>
			<stop  offset="1" style="stop-color:#3B47E0"/>
		</linearGradient>
		<path fill="url(#SVGID_6_)" d="M755.718,385.095h49.896c10.82,0,19.617,3.128,26.388,9.389
			c6.771,6.26,10.156,13.839,10.156,22.734c0,12.308-6.396,21.417-19.191,27.329c5.607,2.552,10.938,9.422,15.99,20.609
			c5.053,11.188,9.93,21.736,14.636,31.646h-30.536c-1.821-3.678-4.999-10.688-9.527-21.03c-4.529-10.342-8.406-16.979-11.631-19.91
			c-3.229-2.932-6.679-4.398-10.356-4.398h-7.997v45.34h-27.826L755.718,385.095L755.718,385.095z M783.544,405.565v25.427h14.715
			c4.69,0,8.408-1.105,11.153-3.317c2.747-2.212,4.119-5.371,4.119-9.477c0-8.423-5.307-12.633-15.913-12.633H783.544
			L783.544,405.565z"/>
	</g>
	<g>
		<linearGradient id="SVGID_7_" gradientUnits="userSpaceOnUse" x1="239.8281" y1="560.6758" x2="287.167" y2="560.6758">
			<stop  offset="0" style="stop-color:#0007E5"/>
			<stop  offset="1" style="stop-color:#3B47E0"/>
		</linearGradient>
		<path fill="url(#SVGID_7_)" d="M287.167,570.146v10.602c-6.071,3.22-12.432,4.831-19.082,4.831c-8.62,0-15.484-2.381-20.593-7.144
			c-5.109-4.762-7.664-10.63-7.664-17.604c0-6.977,2.694-12.896,8.081-17.761c5.388-4.866,12.425-7.3,21.115-7.3
			c6.928,0,12.791,1.426,17.587,4.274v10.811c-5.886-3.314-11.458-4.972-16.718-4.972c-5.167,0-9.39,1.385-12.669,4.153
			c-3.279,2.77-4.918,6.297-4.918,10.583c0,4.311,1.616,7.867,4.849,10.672c3.232,2.803,7.374,4.205,12.426,4.205
			c2.502,0,4.912-0.331,7.229-0.99C279.125,573.848,282.579,572.394,287.167,570.146z"/>
		<linearGradient id="SVGID_8_" gradientUnits="userSpaceOnUse" x1="294.709" y1="560.6738" x2="350.3184" y2="560.6738">
			<stop  offset="0" style="stop-color:#0007E5"/>
			<stop  offset="1" style="stop-color:#3B47E0"/>
		</linearGradient>
		<path fill="url(#SVGID_8_)" d="M322.548,535.771c8.272,0,14.968,2.496,20.089,7.489c5.121,4.994,7.682,10.806,7.682,17.433
			c0,6.721-2.596,12.546-7.785,17.48c-5.191,4.937-11.853,7.403-19.985,7.403c-8.226,0-14.923-2.456-20.089-7.369
			c-5.167-4.911-7.75-10.751-7.75-17.516c0-6.651,2.565-12.468,7.698-17.449C307.54,538.263,314.253,535.771,322.548,535.771z
			 M322.548,575.499c4.588,0,8.284-1.361,11.088-4.085c2.804-2.722,4.205-6.296,4.205-10.721c0-4.45-1.4-8.029-4.205-10.742
			c-2.804-2.709-6.5-4.065-11.088-4.065c-4.61,0-8.324,1.356-11.139,4.065c-2.815,2.713-4.224,6.292-4.224,10.742
			c0,4.425,1.408,7.999,4.224,10.721C314.225,574.138,317.938,575.499,322.548,575.499z"/>
		<linearGradient id="SVGID_9_" gradientUnits="userSpaceOnUse" x1="359.1475" y1="560.6748" x2="408.2578" y2="560.6748">
			<stop  offset="0" style="stop-color:#0007E5"/>
			<stop  offset="1" style="stop-color:#3B47E0"/>
		</linearGradient>
		<path fill="url(#SVGID_9_)" d="M408.258,536.396v48.557h-10.214l-26.802-31.108v31.108h-12.095v-48.557h11.091l25.925,29.684
			v-29.684H408.258z"/>
		<linearGradient id="SVGID_10_" gradientUnits="userSpaceOnUse" x1="417.1582" y1="560.6738" x2="454.3125" y2="560.6738">
			<stop  offset="0" style="stop-color:#0007E5"/>
			<stop  offset="1" style="stop-color:#3B47E0"/>
		</linearGradient>
		<path fill="url(#SVGID_10_)" d="M452.122,539.525v9.487c-6.442-2.896-11.574-4.345-15.397-4.345c-2.178,0-3.909,0.365-5.194,1.095
			c-1.287,0.73-1.93,1.698-1.93,2.901c0,0.929,0.464,1.809,1.392,2.643c0.926,0.834,3.186,1.912,6.776,3.232
			c3.592,1.321,6.464,2.549,8.62,3.685c2.154,1.136,4.015,2.734,5.577,4.798c1.564,2.062,2.347,4.668,2.347,7.818
			c0,4.495-1.71,8.075-5.127,10.741c-3.418,2.663-7.919,3.996-13.502,3.996c-6.024,0-11.863-1.564-17.518-4.692v-10.462
			c3.244,2.178,6.118,3.767,8.62,4.762c2.502,0.996,5.154,1.495,7.958,1.495c4.75,0,7.125-1.495,7.125-4.48
			c0-1.02-0.476-1.98-1.425-2.884c-0.95-0.904-3.239-2.003-6.865-3.3c-3.627-1.297-6.5-2.502-8.62-3.613
			c-2.12-1.112-3.95-2.7-5.49-4.765c-1.541-2.062-2.311-4.705-2.311-7.926c0-4.172,1.68-7.538,5.041-10.1
			c3.358-2.562,7.854-3.843,13.484-3.843C440.872,535.771,446.352,537.021,452.122,539.525z"/>
		<linearGradient id="SVGID_11_" gradientUnits="userSpaceOnUse" x1="458.7256" y1="560.6738" x2="505.9941" y2="560.6738">
			<stop  offset="0" style="stop-color:#0007E5"/>
			<stop  offset="1" style="stop-color:#3B47E0"/>
		</linearGradient>
		<path fill="url(#SVGID_11_)" d="M505.994,536.396v8.897h-17.586v39.658h-12.096v-39.658h-17.587v-8.897H505.994z"/>
		<linearGradient id="SVGID_12_" gradientUnits="userSpaceOnUse" x1="513.3623" y1="560.6748" x2="555.9053" y2="560.6748">
			<stop  offset="0" style="stop-color:#0007E5"/>
			<stop  offset="1" style="stop-color:#3B47E0"/>
		</linearGradient>
		<path fill="url(#SVGID_12_)" d="M513.362,536.396h21.688c4.704,0,8.527,1.36,11.47,4.081c2.942,2.722,4.414,6.016,4.414,9.884
			c0,5.348-2.779,9.308-8.342,11.877c2.438,1.108,4.755,4.096,6.951,8.959c2.197,4.861,4.317,9.447,6.362,13.756h-13.273
			c-0.792-1.6-2.172-4.646-4.141-9.144c-1.97-4.493-3.655-7.379-5.057-8.653c-1.402-1.273-2.902-1.912-4.501-1.912h-3.476v19.709
			h-12.095L513.362,536.396L513.362,536.396z M525.458,545.295v11.052h6.396c2.038,0,3.654-0.479,4.849-1.441
			c1.192-0.96,1.79-2.333,1.79-4.118c0-3.661-2.308-5.491-6.917-5.491L525.458,545.295L525.458,545.295z"/>
		<linearGradient id="SVGID_13_" gradientUnits="userSpaceOnUse" x1="558.9609" y1="560.9873" x2="607.5166" y2="560.9873">
			<stop  offset="0" style="stop-color:#0007E5"/>
			<stop  offset="1" style="stop-color:#3B47E0"/>
		</linearGradient>
		<path fill="url(#SVGID_13_)" d="M595.423,536.396h12.094v27.562c0,7.091-2.097,12.467-6.291,16.127
			c-4.193,3.662-10.184,5.492-17.97,5.492c-7.691,0-13.664-1.854-17.917-5.562c-4.252-3.706-6.378-9.035-6.378-15.987v-27.631
			h12.131v27.909c0,3.383,1.106,6.095,3.319,8.134c2.212,2.038,5.115,3.059,8.707,3.059c3.729,0,6.713-1.044,8.948-3.129
			c2.236-2.086,3.355-5.051,3.355-8.897L595.423,536.396L595.423,536.396z"/>
		<linearGradient id="SVGID_14_" gradientUnits="userSpaceOnUse" x1="615.9277" y1="560.6758" x2="663.2676" y2="560.6758">
			<stop  offset="0" style="stop-color:#0007E5"/>
			<stop  offset="1" style="stop-color:#3B47E0"/>
		</linearGradient>
		<path fill="url(#SVGID_14_)" d="M663.268,570.146v10.602c-6.07,3.22-12.431,4.831-19.083,4.831
			c-8.618,0-15.481-2.381-20.593-7.144c-5.108-4.762-7.664-10.63-7.664-17.604c0-6.977,2.694-12.896,8.081-17.761
			c5.388-4.866,12.426-7.3,21.115-7.3c6.928,0,12.791,1.426,17.587,4.274v10.811c-5.886-3.314-11.457-4.972-16.718-4.972
			c-5.167,0-9.391,1.385-12.668,4.153c-3.279,2.77-4.918,6.297-4.918,10.583c0,4.311,1.616,7.867,4.849,10.672
			c3.232,2.803,7.374,4.205,12.426,4.205c2.501,0,4.912-0.331,7.229-0.99C655.227,573.848,658.68,572.394,663.268,570.146z"/>
		<linearGradient id="SVGID_15_" gradientUnits="userSpaceOnUse" x1="669.4551" y1="560.6738" x2="716.7227" y2="560.6738">
			<stop  offset="0" style="stop-color:#0007E5"/>
			<stop  offset="1" style="stop-color:#3B47E0"/>
		</linearGradient>
		<path fill="url(#SVGID_15_)" d="M716.723,536.396v8.897h-17.585v39.658h-12.095v-39.658h-17.588v-8.897H716.723z"/>
		<linearGradient id="SVGID_16_" gradientUnits="userSpaceOnUse" x1="724.5078" y1="560.6748" x2="736.6035" y2="560.6748">
			<stop  offset="0" style="stop-color:#0007E5"/>
			<stop  offset="1" style="stop-color:#3B47E0"/>
		</linearGradient>
		<path fill="url(#SVGID_16_)" d="M736.604,536.396v48.557h-12.096v-48.557H736.604z"/>
		<linearGradient id="SVGID_17_" gradientUnits="userSpaceOnUse" x1="745.7109" y1="560.6738" x2="801.3203" y2="560.6738">
			<stop  offset="0" style="stop-color:#0007E5"/>
			<stop  offset="1" style="stop-color:#3B47E0"/>
		</linearGradient>
		<path fill="url(#SVGID_17_)" d="M773.549,535.771c8.273,0,14.97,2.496,20.091,7.489c5.12,4.994,7.681,10.806,7.681,17.433
			c0,6.721-2.596,12.546-7.785,17.48c-5.19,4.936-11.852,7.403-19.985,7.403c-8.225,0-14.922-2.456-20.088-7.369
			c-5.167-4.911-7.751-10.751-7.751-17.516c0-6.651,2.566-12.468,7.698-17.449C758.539,538.263,765.255,535.771,773.549,535.771z
			 M773.549,575.499c4.589,0,8.285-1.361,11.089-4.085c2.804-2.722,4.205-6.296,4.205-10.721c0-4.45-1.401-8.029-4.205-10.742
			c-2.804-2.709-6.5-4.065-11.089-4.065c-4.608,0-8.323,1.356-11.14,4.065c-2.813,2.713-4.222,6.292-4.222,10.742
			c0,4.425,1.407,7.999,4.222,10.721C765.226,574.138,768.939,575.499,773.549,575.499z"/>
		<linearGradient id="SVGID_18_" gradientUnits="userSpaceOnUse" x1="810.1484" y1="560.6748" x2="859.2607" y2="560.6748">
			<stop  offset="0" style="stop-color:#0007E5"/>
			<stop  offset="1" style="stop-color:#3B47E0"/>
		</linearGradient>
		<path fill="url(#SVGID_18_)" d="M859.261,536.396v48.557h-10.216l-26.801-31.108v31.108h-12.096v-48.557h11.091l25.925,29.684
			v-29.684H859.261z"/>
	</g>
</g>
<g>
	<linearGradient id="SVGID_19_" gradientUnits="userSpaceOnUse" x1="400.6743" y1="753.2871" x2="563.2607" y2="753.2871">
		<stop  offset="0" style="stop-color:#0007E5"/>
		<stop  offset="1" style="stop-color:#3B47E0"/>
	</linearGradient>
	<path fill="url(#SVGID_19_)" d="M561.08,668.997l-28.126-37.215c-1.931-2.556-4.949-4.058-8.152-4.058h-79.854
		c-13.84,0-12.074,10.078-12.074,10.078l0.581,60.178c0.034,3.494-1.137,6.896-3.314,9.632l-7.975,10.009
		c-3.204,4.021-4.818,9.083-4.536,14.218l2.595,47.138c0.114,2.062-0.092,4.126-0.609,6.123l-18.235,70.317
		c-0.286,1.103-0.521,2.221-0.625,3.354c-1.368,15.02,15.16,16.737,15.16,16.737c6.958,1.518,11.517-0.646,14.336-3.187
		c2.179-1.962,3.659-4.583,4.433-7.41l21.062-76.905l1.44-34.725l28.364,33.759c1.718,2.044,2.06,4.911,0.87,7.3l-28.787,57.872
		c-0.753,1.516-1.393,3.091-1.831,4.725c-3.579,13.318,6.499,18.571,6.499,18.571c5.999,3.759,11.277,3.759,15.058,2.818
		c3.44-0.855,6.288-3.271,7.892-6.434l38.225-75.341c2.538-5.005,2.269-10.976-0.713-15.73l-4.2-6.702
		c-1.748-2.786-1.854-6.3-0.278-9.188l41.357-75.781C566.839,677.154,561.08,668.997,561.08,668.997z M456.849,675.58l1.177-18.823
		c0.066-1.078,0.961-1.917,2.041-1.917h18.272c0.772,0,1.153,0.938,0.599,1.476l-20.582,19.96
		C457.771,676.84,456.797,676.391,456.849,675.58z M502.271,731.96l-12.773-10.391c-0.972-0.79-0.86-2.308,0.218-2.945
		l25.258-14.974c0.941-0.559,2.113,0.27,1.875,1.338c-1.593,7.175-8.627,20.965-11.452,26.336
		C504.789,732.477,503.28,732.781,502.271,731.96z"/>
	<linearGradient id="SVGID_20_" gradientUnits="userSpaceOnUse" x1="550.2832" y1="634.4453" x2="604.9912" y2="634.4453">
		<stop  offset="0" style="stop-color:#0007E5"/>
		<stop  offset="1" style="stop-color:#3B47E0"/>
	</linearGradient>
	<circle fill="url(#SVGID_20_)" cx="577.637" cy="634.445" r="27.354"/>
	<g>
		<linearGradient id="SVGID_21_" gradientUnits="userSpaceOnUse" x1="406.0537" y1="750.1973" x2="612.6523" y2="750.1973">
			<stop  offset="0" style="stop-color:#0007E5"/>
			<stop  offset="1" style="stop-color:#3B47E0"/>
		</linearGradient>
		<path fill="url(#SVGID_21_)" d="M603.087,834.325L408.921,679.736c-3.285-2.613-3.827-7.396-1.212-10.681l0.095-0.12
			c2.615-3.283,7.397-3.827,10.683-1.214l194.166,154.589L603.087,834.325z"/>
	</g>
	<linearGradient id="SVGID_22_" gradientUnits="userSpaceOnUse" x1="522.9814" y1="836.6377" x2="721.2578" y2="836.6377">
		<stop  offset="0" style="stop-color:#0007E5"/>
		<stop  offset="1" style="stop-color:#3B47E0"/>
	</linearGradient>
	<path fill="url(#SVGID_22_)" d="M525.541,875.508h192.162c2.509,0,4.232-2.53,3.296-4.856
		c-2.854-7.089-11.327-20.226-35.934-27.604c-0.979-0.292-1.672-1.155-1.716-2.176c-0.293-6.612-3.354-30.062-32.333-22.245
		c-0.508,0.139-1.038-0.131-1.215-0.626c-1.429-3.997-8.108-20.232-22.417-20.232c0,0-18.38-0.308-23.366,16.465
		c-0.188,0.64-0.819,1.037-1.482,0.973c-3.793-0.376-15.915-0.484-23.704,11.984c-0.247,0.394-0.654,0.662-1.117,0.708
		c-3.684,0.359-20.288,2.831-21.993,18.18c0,0-18.704,2.877-32.37,25.551C522.326,873.329,523.553,875.508,525.541,875.508z"/>
</g>
</svg>
